<svg id="Capa_1" enable-background="new 0 0 512 512" height="512" viewBox="0 0 512 512" width="512" xmlns="http://www.w3.org/2000/svg"><g id="XMLID_51_"><g id="XMLID_18_"><path id="XMLID_1774_" d="m346.625 135.438h-181.25c-8.284 0-15-6.716-15-15v-54.125c0-28.26 22.991-51.251 51.251-51.251h108.748c28.26 0 51.251 22.991 51.251 51.251v54.124c0 8.285-6.716 15.001-15 15.001zm-166.25-20h151.25v-49.125c0-11.718-9.533-21.251-21.251-21.251h-108.748c-11.718 0-21.251 9.533-21.251 21.251z" fill="#575a65"/></g><path id="XMLID_1928_" d="m310.374 15.062h-54.374v30h54.374c11.718 0 21.251 9.533 21.251 21.251v49.124h-75.625v20h90.625c8.284 0 15-6.716 15-15v-54.124c0-28.259-22.991-51.251-51.251-51.251z" fill="#464b52"/><g id="XMLID_20_"><path id="XMLID_1777_" d="m435.751 496.938-179.751-26.938-179.751 26.938c-42.044 0-76.249-34.206-76.249-76.25v-239.001c0-42.044 34.205-76.249 76.249-76.249l179.751 12.562 179.751-12.562c42.044 0 76.249 34.205 76.249 76.249v239.002c0 42.043-34.205 76.249-76.249 76.249z" fill="#464b52"/></g><path id="XMLID_1883_" d="m435.751 105.438-179.751 10v371.5l179.751 10c42.044 0 76.249-34.205 76.249-76.249v-239.002c0-42.044-34.205-76.249-76.249-76.249z" fill="#292b2f"/><g id="XMLID_21_"><path id="XMLID_1768_" d="m435.751 496.938h-359.502v-391.5h359.502z" fill="#f3f5fc"/></g><path id="XMLID_1882_" d="m256 105.438h179.751v391.5h-179.751z" fill="#e9ecf4"/><g id="XMLID_52_"><path id="XMLID_1771_" d="m286.125 406.562h-60.25c-8.284 0-15-6.716-15-15v-45.25h-45.25c-8.284 0-15-6.716-15-15v-60.25c0-8.284 6.716-15 15-15h45.25v-45.25c0-8.284 6.716-15 15-15h60.25c8.284 0 15 6.716 15 15v45.25h45.25c8.284 0 15 6.716 15 15v60.25c0 8.284-6.716 15-15 15h-45.25v45.25c0 8.285-6.716 15-15 15z" fill="#d73424"/></g><path id="XMLID_1924_" d="m346.375 256.062h-45.25v-45.25c0-8.284-6.716-15-15-15h-30.125v210.75h30.125c8.284 0 15-6.716 15-15v-45.25h45.25c8.284 0 15-6.716 15-15v-60.25c0-8.284-6.716-15-15-15z" fill="#b3113b"/></g></svg>