<svg width="32" height="32" viewBox="0 0 32 32" fill="none" xmlns="http://www.w3.org/2000/svg">
<path d="M15.9957 7.79031C11.4527 7.79031 7.78631 11.4567 7.78631 15.9997C7.78631 20.5427 11.4527 24.2091 15.9957 24.2091C20.5387 24.2091 24.2051 20.5427 24.2051 15.9997C24.2051 11.4567 20.5387 7.79031 15.9957 7.79031ZM15.9957 21.3352C13.0578 21.3352 10.6602 18.9376 10.6602 15.9997C10.6602 13.0618 13.0578 10.6642 15.9957 10.6642C18.9336 10.6642 21.3312 13.0618 21.3312 15.9997C21.3312 18.9376 18.9336 21.3352 15.9957 21.3352ZM24.5413 5.54083C23.4806 5.54083 22.6241 6.39739 22.6241 7.45809C22.6241 8.51879 23.4806 9.37535 24.5413 9.37535C25.602 9.37535 26.4586 8.52279 26.4586 7.45809C26.4589 7.20622 26.4095 6.95677 26.3133 6.72401C26.217 6.49126 26.0758 6.27977 25.8977 6.10168C25.7196 5.92358 25.5081 5.78237 25.2754 5.68613C25.0426 5.58989 24.7932 5.54051 24.5413 5.54083V5.54083ZM31.9982 15.9997C31.9982 13.7903 32.0182 11.6008 31.8941 9.39536C31.7701 6.83368 31.1857 4.56019 29.3125 2.68696C27.4352 0.809721 25.1657 0.22934 22.604 0.105259C20.3946 -0.0188226 18.2052 0.00119056 15.9997 0.00119056C13.7902 0.00119056 11.6008 -0.0188226 9.39536 0.105259C6.83368 0.22934 4.56019 0.813724 2.68696 2.68696C0.809722 4.56419 0.22934 6.83368 0.105259 9.39536C-0.0188226 11.6048 0.00119056 13.7943 0.00119056 15.9997C0.00119056 18.2052 -0.0188226 20.3986 0.105259 22.604C0.22934 25.1657 0.813725 27.4392 2.68696 29.3124C4.56419 31.1897 6.83368 31.7701 9.39536 31.8941C11.6048 32.0182 13.7943 31.9982 15.9997 31.9982C18.2092 31.9982 20.3986 32.0182 22.604 31.8941C25.1657 31.7701 27.4392 31.1857 29.3125 29.3124C31.1897 27.4352 31.7701 25.1657 31.8941 22.604C32.0222 20.3986 31.9982 18.2092 31.9982 15.9997V15.9997ZM28.4759 25.4379C28.1837 26.1664 27.8315 26.7107 27.2671 27.2711C26.7027 27.8355 26.1624 28.1877 25.4339 28.4799C23.3285 29.3165 18.3292 29.1283 15.9957 29.1283C13.6622 29.1283 8.65888 29.3165 6.5535 28.4839C5.82502 28.1917 5.28066 27.8395 4.72029 27.2751C4.15592 26.7107 3.80369 26.1704 3.5115 25.4419C2.67895 23.3325 2.86707 18.3332 2.86707 15.9997C2.86707 13.6662 2.67895 8.66288 3.5115 6.5575C3.80369 5.82902 4.15592 5.28466 4.72029 4.72429C5.28466 4.16393 5.82502 3.80769 6.5535 3.5155C8.65888 2.68295 13.6622 2.87108 15.9957 2.87108C18.3292 2.87108 23.3325 2.68295 25.4379 3.5155C26.1664 3.80769 26.7107 4.15992 27.2711 4.72429C27.8355 5.28866 28.1877 5.82902 28.4799 6.5575C29.3125 8.66288 29.1243 13.6662 29.1243 15.9997C29.1243 18.3332 29.3124 23.3325 28.4759 25.4379Z" fill="#002CA3"/>
</svg>
