<svg width="32" height="32" viewBox="0 0 32 32" fill="none" xmlns="http://www.w3.org/2000/svg">
<path d="M6.2708 0C2.82235 0 0 2.82229 0 6.2708V25.7302C0 29.1787 2.82229 32 6.2708 32H25.7302C29.1787 32 32 29.1787 32 25.7302V6.2708C32 2.82235 29.1787 0 25.7302 0H6.2708ZM7.84801 5.28064C9.50146 5.28064 10.5199 6.36611 10.5514 7.79294C10.5514 9.18827 9.5014 10.3042 7.81602 10.3042H7.785C6.16301 10.3042 5.11465 9.18834 5.11465 7.79294C5.11465 6.36614 6.19474 5.28064 7.84797 5.28064H7.84801ZM22.0968 11.9495C25.2767 11.9495 27.6605 14.0279 27.6605 18.4943V26.8323H22.8279V19.0533C22.8279 17.0985 22.1285 15.7649 20.3796 15.7649C19.0445 15.7649 18.2487 16.6638 17.8993 17.5321C17.7716 17.8428 17.7403 18.2767 17.7403 18.7113V26.8323H12.9077C12.9077 26.8323 12.9711 13.6549 12.9077 12.2905H17.7413V14.3498C18.3835 13.3589 19.5322 11.9494 22.0968 11.9494V11.9495ZM5.3997 12.2915H10.2323V26.8324H5.3997V12.2915V12.2915Z" fill="#002CA3"/>
</svg>
