<svg width="20" height="20" viewBox="0 0 20 20" fill="none" xmlns="http://www.w3.org/2000/svg">
<path d="M17.647 4.45109L18.0628 2.98876C18.1396 2.71936 18.313 2.49372 18.5449 2.36148C18.7768 2.22924 19.0482 2.20123 19.2993 2.28361C19.5505 2.36599 19.7608 2.55202 19.8841 2.80077C20.0074 3.04952 20.0335 3.34061 19.9567 3.61001L18.7984 7.67204C18.7216 7.94123 18.5483 8.16672 18.3167 8.29894C18.085 8.43117 17.8138 8.45931 17.5628 8.37719L13.7759 7.13468C13.649 7.09635 13.5304 7.03119 13.4273 6.94304C13.3241 6.85489 13.2384 6.74551 13.1752 6.62134C13.112 6.49717 13.0726 6.3607 13.0592 6.21996C13.0459 6.07921 13.0589 5.93702 13.0975 5.80174C13.1361 5.66645 13.1995 5.5408 13.2839 5.43217C13.3684 5.32353 13.4723 5.2341 13.5895 5.16912C13.7066 5.10414 13.8347 5.06492 13.9662 5.05377C14.0976 5.04263 14.2299 5.05977 14.3551 5.1042L16.0104 5.64687C15.2787 4.45629 14.2579 3.50241 13.0582 2.88796C11.8585 2.27351 10.5252 2.02177 9.20203 2.15986C7.87882 2.29795 6.6158 2.82064 5.549 3.67162C4.48219 4.5226 3.65203 5.66964 3.14792 6.98919L2.89051 7.66142C2.84369 7.79412 2.77256 7.91541 2.68132 8.01813C2.59008 8.12085 2.48057 8.20291 2.35927 8.25948C2.23796 8.31604 2.10732 8.34596 1.97506 8.34747C1.84279 8.34897 1.71159 8.32203 1.5892 8.26824C1.4668 8.21445 1.35569 8.13489 1.26244 8.03427C1.16919 7.93365 1.09568 7.81401 1.04625 7.6824C0.996819 7.5508 0.972476 7.40991 0.974657 7.26805C0.976838 7.12619 1.0055 6.98623 1.05894 6.85645L1.31635 6.18422C1.95614 4.50979 3.00903 3.05391 4.36197 1.9729C5.71491 0.89189 7.3168 0.226581 8.99564 0.0484096C10.6745 -0.129762 12.3668 0.185935 13.891 0.961601C15.4152 1.73727 16.7137 2.94361 17.647 4.45109ZM2.27966 15.7218L1.95591 17.114C1.92695 17.2521 1.87254 17.3826 1.7959 17.4978C1.71926 17.613 1.62192 17.7106 1.5096 17.7848C1.39729 17.8591 1.27227 17.9086 1.14189 17.9303C1.01151 17.952 0.8784 17.9455 0.750381 17.9112C0.622363 17.877 0.502021 17.8156 0.396426 17.7308C0.290831 17.6459 0.202114 17.5393 0.135489 17.4171C0.0688648 17.2949 0.0256764 17.1597 0.00846225 17.0194C-0.00875189 16.8791 0.000355576 16.7365 0.0352494 16.6L0.992612 12.4796C1.02491 12.3393 1.08356 12.2075 1.16498 12.0924C1.24639 11.9773 1.34886 11.8812 1.4661 11.81C1.58334 11.7388 1.71289 11.694 1.84682 11.6784C1.98075 11.6628 2.11625 11.6767 2.245 11.7192L6.03485 12.7323C6.28968 12.8005 6.50883 12.9744 6.64409 13.2159C6.77935 13.4574 6.81964 13.7466 6.75609 14.02C6.69255 14.2933 6.53038 14.5284 6.30526 14.6735C6.08014 14.8185 5.81051 14.8618 5.55568 14.7936L3.78748 14.321C4.54339 15.5623 5.61187 16.5483 6.869 17.1646C8.12613 17.7809 9.52039 18.0023 10.8901 17.803C12.2597 17.6038 13.5487 16.9922 14.6074 16.0391C15.6662 15.0859 16.4513 13.8303 16.8718 12.418C16.9113 12.2851 16.9748 12.1618 17.0588 12.0553C17.1427 11.9487 17.2454 11.8609 17.3609 11.7969C17.4765 11.7329 17.6027 11.6939 17.7323 11.6823C17.8619 11.6706 17.9923 11.6864 18.1162 11.7288C18.2401 11.7712 18.355 11.8393 18.4544 11.9293C18.5537 12.0194 18.6356 12.1295 18.6952 12.2535C18.7549 12.3774 18.7912 12.5128 18.8021 12.6518C18.813 12.7908 18.7983 12.9307 18.7588 13.0637C18.3466 14.4505 17.6561 15.7237 16.7359 16.7935C15.8157 17.8634 14.688 18.7039 13.4324 19.256C11.4759 20.1158 9.30457 20.2341 7.27691 19.5916C5.24924 18.949 3.48647 17.584 2.27966 15.7218Z" fill="#00144C" fill-opacity="0.951"/>
</svg>
