<svg width="1000" height="284" viewBox="0 0 1000 284" fill="none" xmlns="http://www.w3.org/2000/svg">
<path d="M253.941 216.803C294.801 216.803 327.926 183.679 327.926 142.818C327.926 101.957 294.801 68.8326 253.941 68.8326C213.08 68.8326 179.955 101.957 179.955 142.818C179.955 183.679 213.08 216.803 253.941 216.803Z" fill="#02DF40"/>
<path d="M282.631 210.842C264.979 218.461 245.056 218.912 227.077 212.1C209.099 205.288 194.477 191.747 186.306 174.344C178.135 156.941 177.057 137.042 183.299 118.858C189.542 100.674 202.615 85.6325 219.751 76.9174C209.153 88.2645 202.101 102.461 199.461 117.762C196.822 133.063 198.711 148.802 204.897 163.043C211.082 177.285 221.294 189.409 234.277 197.925C247.261 206.441 262.449 210.978 277.976 210.978C279.528 210.978 281.079 210.924 282.631 210.842Z" fill="#03B253"/>
<path d="M274.574 104.192C278.437 104.192 281.569 101.061 281.569 97.1972C281.569 93.3335 278.437 90.2014 274.574 90.2014C270.71 90.2014 267.578 93.3335 267.578 97.1972C267.578 101.061 270.71 104.192 274.574 104.192Z" fill="#22A74F"/>
<path d="M211.204 108.602C215.068 108.602 218.2 105.47 218.2 101.607C218.2 97.743 215.068 94.611 211.204 94.611C207.341 94.611 204.209 97.743 204.209 101.607C204.209 105.47 207.341 108.602 211.204 108.602Z" fill="#F4F6F9"/>
<path d="M236.247 102.451C239.149 102.451 241.501 100.098 241.501 97.197C241.501 94.2956 239.149 91.9437 236.247 91.9437C233.346 91.9437 230.993 94.2956 230.993 97.197C230.993 100.098 233.346 102.451 236.247 102.451Z" fill="#F4F6F9"/>
<path d="M245.829 146.657C252.308 146.657 257.561 141.404 257.561 134.925C257.561 128.445 252.308 123.193 245.829 123.193C239.35 123.193 234.097 128.445 234.097 134.925C234.097 141.404 239.35 146.657 245.829 146.657Z" fill="#22A74F"/>
<path d="M206.441 169.985C212.92 169.985 218.173 164.732 218.173 158.253C218.173 151.773 212.92 146.521 206.441 146.521C199.961 146.521 194.709 151.773 194.709 158.253C194.709 164.732 199.961 169.985 206.441 169.985Z" fill="#F4F6F9"/>
<path d="M260.827 188.413C267.307 188.413 272.559 183.16 272.559 176.681C272.559 170.202 267.307 164.949 260.827 164.949C254.348 164.949 249.095 170.202 249.095 176.681C249.095 183.16 254.348 188.413 260.827 188.413Z" fill="#22A74F"/>
<path d="M298.201 176.681C302.065 176.681 305.197 173.549 305.197 169.685C305.197 165.822 302.065 162.69 298.201 162.69C294.338 162.69 291.206 165.822 291.206 169.685C291.206 173.549 294.338 176.681 298.201 176.681Z" fill="#00C708"/>
<path d="M225.223 197.178C228.124 197.178 230.476 194.826 230.476 191.925C230.476 189.023 228.124 186.671 225.223 186.671C222.322 186.671 219.969 189.023 219.969 191.925C219.969 194.826 222.322 197.178 225.223 197.178Z" fill="#00C708"/>
<path d="M208.537 137.783C211.438 137.783 213.791 135.431 213.791 132.53C213.791 129.628 211.438 127.276 208.537 127.276C205.635 127.276 203.283 129.628 203.283 132.53C203.283 135.431 205.635 137.783 208.537 137.783Z" fill="#00C708"/>
<path d="M291.206 134.38C295.069 134.38 298.201 131.248 298.201 127.384C298.201 123.521 295.069 120.389 291.206 120.389C287.342 120.389 284.21 123.521 284.21 127.384C284.21 131.248 287.342 134.38 291.206 134.38Z" fill="#00C708"/>
<path d="M245.829 69.2684C251.736 56.7467 251.028 34.8344 251.028 34.8344H257.207C257.207 34.8344 257.969 59.0877 262.651 69.3226" fill="#14C450"/>
<path d="M257.289 36.767C255.191 36.8932 253.091 36.5587 251.137 35.7871V34.8344H257.316C257.316 34.8344 257.261 35.9232 257.289 36.767Z" fill="#22A74F"/>
<path d="M254.213 35.3794C258.122 35.3794 261.29 33.7951 261.29 31.8407C261.29 29.8863 258.122 28.302 254.213 28.302C250.304 28.302 247.135 29.8863 247.135 31.8407C247.135 33.7951 250.304 35.3794 254.213 35.3794Z" fill="#14C450"/>
<path d="M250.623 30.7364C251.354 30.565 251.887 30.165 251.811 29.843C251.736 29.521 251.081 29.3988 250.35 29.5703C249.617 29.7416 249.085 30.1416 249.161 30.4637C249.236 30.7857 249.891 30.9078 250.623 30.7364Z" fill="#F4F6F9"/>
<path d="M271.253 72.2086C278.766 64.6959 283.965 48.6628 283.965 48.6628L288.429 50.2963C288.429 50.2963 282.658 68.0166 283.339 76.5912" fill="#14C450"/>
<path d="M287.993 51.7114C286.447 51.2477 285.018 50.4591 283.801 49.3977L284.047 48.6902L288.511 50.3232L287.993 51.7114Z" fill="#22A74F"/>
<path d="M292.141 49.1321C292.651 47.7179 290.771 45.7451 287.942 44.7261C285.113 43.7071 282.407 44.0277 281.898 45.4421C281.388 46.8564 283.268 48.8293 286.097 49.8481C288.926 50.867 291.632 50.5462 292.141 49.1321Z" fill="#14C450"/>
<path d="M285.736 45.2246C285.765 44.9708 285.329 44.7115 284.762 44.6455C284.194 44.5796 283.71 44.7319 283.681 44.9858C283.651 45.2396 284.087 45.4989 284.655 45.5648C285.222 45.6308 285.706 45.4785 285.736 45.2246Z" fill="#F4F6F9"/>
<path d="M287.177 79.1229C294.989 74.3319 302.557 61.9739 302.557 61.9739L305.959 64.206C305.959 64.206 297.575 77.8163 296.432 85.2474" fill="#14C450"/>
<path d="M305.306 65.3217C304.104 64.6467 303.064 63.7175 302.257 62.6L302.611 62.0557L306.013 64.2877L305.306 65.3217Z" fill="#22A74F"/>
<path d="M309.33 64.0755C310.039 62.9943 308.86 60.9689 306.698 59.5509C304.535 58.133 302.208 57.8604 301.499 58.9415C300.79 60.0226 301.968 62.0486 304.131 63.4665C306.293 64.8839 308.621 65.1571 309.33 64.0755Z" fill="#14C450"/>
<path d="M304.777 59.5058C304.855 59.294 304.54 58.9841 304.074 58.8138C303.607 58.6435 303.167 58.6775 303.09 58.8893C303.012 59.1011 303.327 59.411 303.793 59.5808C304.259 59.7511 304.7 59.7176 304.777 59.5058Z" fill="#F4F6F9"/>
<path d="M224.325 77.3801C225.386 68.3976 220.378 54.7872 220.378 54.7872L224.243 53.4806C224.243 53.4806 229.85 68.5334 234.914 73.9778" fill="#14C450"/>
<path d="M224.624 54.5693C223.337 55.0863 221.954 55.3183 220.568 55.2499L220.378 54.7872L224.243 53.4806L224.624 54.5693Z" fill="#22A74F"/>
<path d="M222.425 54.3515C224.875 53.5241 226.525 51.8604 226.111 50.6354C225.698 49.4104 223.376 49.0883 220.926 49.9156C218.477 50.743 216.826 52.4067 217.24 53.6317C217.653 54.8562 219.975 55.1788 222.425 54.3515Z" fill="#14C450"/>
<path d="M219.18 52.1719C219.602 51.9101 219.847 51.5426 219.728 51.3511C219.609 51.1596 219.171 51.2167 218.75 51.4785C218.328 51.7398 218.083 52.1072 218.202 52.2987C218.321 52.4907 218.759 52.4336 219.18 52.1719Z" fill="#F4F6F9"/>
<path d="M324.17 127.657C332.853 130.597 347.198 128.501 347.198 128.501L347.661 132.557C347.661 132.557 331.764 134.87 325.367 138.681" fill="#14C450"/>
<path d="M346.382 132.774C346.153 131.408 346.209 130.008 346.545 128.664H347.198L347.661 132.72L346.382 132.774Z" fill="#22A74F"/>
<path d="M349.903 135.046C351.188 134.901 351.992 132.699 351.7 130.13C351.407 127.561 350.129 125.596 348.845 125.743C347.56 125.889 346.756 128.09 347.048 130.659C347.341 133.228 348.618 135.193 349.903 135.046Z" fill="#14C450"/>
<path d="M350.506 128.646C350.718 128.57 350.755 128.13 350.588 127.662C350.421 127.195 350.114 126.878 349.901 126.954C349.689 127.03 349.652 127.47 349.819 127.937C349.986 128.404 350.294 128.722 350.506 128.646Z" fill="#F4F6F9"/>
<path d="M325.775 142.983C333.615 147.719 348.097 148.726 348.097 148.726L347.688 152.809C347.688 152.809 331.655 151.666 324.632 154.007" fill="#14C450"/>
<path d="M346.408 152.781C346.465 151.389 346.818 150.025 347.443 148.78H348.097L347.688 152.863L346.408 152.781Z" fill="#22A74F"/>
<path d="M352.161 151.245C352.424 148.673 351.594 146.481 350.308 146.349C349.022 146.218 347.766 148.197 347.504 150.769C347.241 153.342 348.071 155.533 349.357 155.665C350.643 155.796 351.899 153.817 352.161 151.245Z" fill="#14C450"/>
<path d="M351.346 149.517C351.57 149.488 351.699 149.066 351.636 148.574C351.573 148.082 351.34 147.706 351.116 147.735C350.892 147.764 350.763 148.186 350.826 148.678C350.89 149.17 351.123 149.546 351.346 149.517Z" fill="#F4F6F9"/>
<path d="M319.325 172.598C324.524 180.138 337.29 187.025 337.29 187.025L335.221 190.536C335.221 190.536 321.094 182.914 313.717 182.152" fill="#14C450"/>
<path d="M334.105 189.965C334.734 188.725 335.615 187.631 336.691 186.753L337.263 187.079L335.194 190.591L334.105 189.965Z" fill="#22A74F"/>
<path d="M339.967 190.949C341.267 188.713 341.414 186.375 340.297 185.725C339.179 185.075 337.219 186.361 335.92 188.596C334.62 190.832 334.473 193.17 335.591 193.82C336.709 194.47 338.668 193.185 339.967 190.949Z" fill="#14C450"/>
<path d="M340.491 188.271C340.636 187.796 340.578 187.358 340.363 187.292C340.147 187.226 339.855 187.557 339.71 188.032C339.565 188.506 339.622 188.944 339.838 189.01C340.053 189.076 340.346 188.745 340.491 188.271Z" fill="#F4F6F9"/>
<path d="M319.107 110.59C329.723 111.515 345.32 105.146 345.32 105.146L346.953 109.61C346.953 109.61 329.668 116.606 323.543 122.649" fill="#14C450"/>
<path d="M345.592 110.208C344.945 108.733 344.62 107.137 344.639 105.527L345.347 105.254L346.98 109.719L345.592 110.208Z" fill="#22A74F"/>
<path d="M350.218 111.717C351.629 111.196 351.927 108.487 350.886 105.667C349.844 102.846 347.857 100.982 346.446 101.503C345.036 102.024 344.737 104.732 345.779 107.553C346.821 110.373 348.808 112.237 350.218 111.717Z" fill="#14C450"/>
<path d="M349.075 104.315C349.288 104.175 349.206 103.674 348.891 103.197C348.576 102.72 348.148 102.448 347.934 102.589C347.721 102.73 347.804 103.231 348.118 103.707C348.434 104.184 348.862 104.456 349.075 104.315Z" fill="#F4F6F9"/>
<path d="M324.905 158.743C332.553 166.12 348.64 171.02 348.64 171.02L347.144 175.511C347.144 175.511 329.287 170.067 320.713 170.911" fill="#14C450"/>
<path d="M345.592 175.075C346.022 173.521 346.773 172.074 347.797 170.829L348.505 171.074L347.008 175.565L345.592 175.075Z" fill="#22A74F"/>
<path d="M354.26 172.193C355.222 169.337 354.844 166.631 353.416 166.15C351.988 165.67 350.05 167.595 349.088 170.451C348.126 173.308 348.504 176.013 349.932 176.494C351.36 176.975 353.298 175.05 354.26 172.193Z" fill="#14C450"/>
<path d="M359.29 170.81C359.347 170.238 359.186 169.754 358.93 169.729C358.675 169.703 358.421 170.145 358.364 170.717C358.307 171.288 358.468 171.772 358.723 171.798C358.979 171.823 359.233 171.381 359.29 170.81Z" fill="#F4F6F9"/>
<path d="M296.786 201.56C297.684 212.176 306.585 226.44 306.585 226.44L302.475 228.835C302.475 228.835 292.621 212.993 285.652 207.957" fill="#14C450"/>
<path d="M301.685 227.583C303.033 226.697 304.556 226.112 306.15 225.868L306.531 226.494L302.42 228.89L301.685 227.583Z" fill="#22A74F"/>
<path d="M306.983 232.011C309.585 230.505 311.084 228.229 310.332 226.928C309.579 225.627 306.858 225.793 304.256 227.299C301.654 228.805 300.155 231.081 300.908 232.382C301.661 233.683 304.381 233.517 306.983 232.011Z" fill="#14C450"/>
<path d="M309.083 229.638C309.5 229.247 309.695 228.778 309.52 228.592C309.345 228.406 308.866 228.573 308.449 228.964C308.033 229.355 307.838 229.823 308.013 230.01C308.188 230.196 308.667 230.029 309.083 229.638Z" fill="#F4F6F9"/>
<path d="M303.618 87.9692C316.929 84.1036 332.853 69.0508 332.853 69.0508L336.936 73.6508C336.936 73.6508 319.27 90.3098 314.697 100.545" fill="#14C450"/>
<path d="M335.548 75.0123C334.071 73.5293 332.929 71.7472 332.2 69.7859L332.908 69.1326L336.991 73.733L335.548 75.0123Z" fill="#22A74F"/>
<path d="M341.882 74.6522C343.345 73.3564 342.429 69.9338 339.837 67.0083C337.245 64.0828 333.958 62.7616 332.495 64.0573C331.033 65.3536 331.948 68.7757 334.54 71.7017C337.132 74.6272 340.419 75.9484 341.882 74.6522Z" fill="#14C450"/>
<path d="M337.028 66.2316C337.219 65.9614 336.877 65.3906 336.263 64.9567C335.65 64.5222 334.997 64.3892 334.806 64.6595C334.615 64.9293 334.958 65.5 335.571 65.9345C336.185 66.3684 336.837 66.5015 337.028 66.2316Z" fill="#F4F6F9"/>
<path d="M315.84 183.404C321.72 195.926 339.059 209.345 339.059 209.345L335.14 214.082C335.14 214.082 315.949 199.219 305.197 196.28" fill="#14C450"/>
<path d="M333.588 212.938C334.832 211.248 336.418 209.838 338.242 208.801L339.005 209.427L335.085 214.163L333.588 212.938Z" fill="#22A74F"/>
<path d="M342.085 215.846C344.574 212.832 345.369 209.38 343.862 208.135C342.355 206.891 339.116 208.326 336.627 211.34C334.139 214.355 333.344 217.807 334.851 219.051C336.358 220.295 339.597 218.86 342.085 215.846Z" fill="#14C450"/>
<path d="M343.575 212.186C343.908 211.513 343.939 210.848 343.642 210.701C343.346 210.554 342.835 210.981 342.501 211.655C342.167 212.328 342.137 212.993 342.434 213.14C342.73 213.287 343.241 212.86 343.575 212.186Z" fill="#F4F6F9"/>
<path d="M241.283 215.742C232.11 226.113 226.72 247.345 226.72 247.345L220.786 245.63C220.786 245.63 226.802 222.112 225.223 211.033" fill="#22A74F"/>
<path d="M221.249 243.752C223.299 244.25 225.22 245.178 226.883 246.475L226.639 247.4L220.704 245.685C220.704 245.685 221.031 244.596 221.249 243.752Z" fill="#00C708"/>
<path d="M229.608 251.318C230.151 249.441 227.548 247.038 223.793 245.951C220.039 244.865 216.555 245.506 216.011 247.383C215.468 249.261 218.071 251.663 221.826 252.75C225.581 253.836 229.065 253.195 229.608 251.318Z" fill="#22A74F"/>
<path d="M227.284 252.036C227.301 251.706 226.707 251.406 225.956 251.368C225.205 251.329 224.583 251.565 224.566 251.895C224.549 252.226 225.143 252.525 225.894 252.564C226.645 252.603 227.267 252.366 227.284 252.036Z" fill="#F4F6F9"/>
<path d="M189.918 180.002C176.063 179.621 156.328 189.121 156.328 189.121L153.824 183.459C153.824 183.459 175.6 172.979 183.222 164.649" fill="#22A74F"/>
<path d="M155.566 182.561C156.529 184.426 157.077 186.479 157.172 188.576L156.3 188.985L153.796 183.323L155.566 182.561Z" fill="#00C708"/>
<path d="M155.178 193.776C156.966 192.987 157.136 189.448 155.558 185.872C153.981 182.296 151.252 180.037 149.464 180.826C147.676 181.614 147.506 185.153 149.083 188.729C150.661 192.306 153.39 194.564 155.178 193.776Z" fill="#22A74F"/>
<path d="M153.059 192.626C153.324 192.427 153.171 191.779 152.719 191.178C152.266 190.578 151.686 190.252 151.422 190.452C151.158 190.65 151.31 191.298 151.762 191.899C152.214 192.499 152.795 192.825 153.059 192.626Z" fill="#F4F6F9"/>
<path d="M187.713 110.045C180.336 98.3129 161.5 87.1251 161.5 87.1251L164.821 81.8987C164.821 81.8987 185.672 94.3388 196.778 95.9718" fill="#22A74F"/>
<path d="M166.4 82.8789C165.369 84.7086 163.959 86.2959 162.262 87.5337L161.445 87.0436L164.766 81.8171C164.766 81.8171 165.637 82.4704 166.4 82.8789Z" fill="#00C708"/>
<path d="M162.738 87.4168C164.849 84.1337 165.229 80.6163 163.587 79.5611C161.945 78.5059 158.903 80.3116 156.793 83.5951C154.682 86.8785 154.302 90.3955 155.943 91.4512C157.585 92.5064 160.627 90.7002 162.738 87.4168Z" fill="#22A74F"/>
<path d="M157.672 85.2192C157.921 84.5098 157.871 83.8461 157.558 83.7362C157.247 83.6263 156.791 84.1122 156.542 84.8211C156.292 85.5301 156.342 86.1942 156.655 86.3037C156.966 86.4136 157.422 85.9282 157.672 85.2192Z" fill="#F4F6F9"/>
<path d="M204.998 90.1738C202.575 79.7484 191.687 66.8186 191.687 66.8186L195.416 63.8785C195.416 63.8785 207.475 78.2238 215.151 82.1984" fill="#22A74F"/>
<path d="M196.396 64.9405C195.184 66.0193 193.754 66.8269 192.204 67.3089L191.742 66.7099L195.471 63.7703L196.396 64.9405Z" fill="#00C708"/>
<path d="M193.848 65.6129C196.219 63.7397 197.386 61.2652 196.455 60.0855C195.523 58.9058 192.845 59.4676 190.474 61.3402C188.102 63.2133 186.935 65.6879 187.867 66.8676C188.799 68.0473 191.477 67.4855 193.848 65.6129Z" fill="#22A74F"/>
<path d="M189.463 64.5161C189.819 64.0694 189.945 63.5779 189.745 63.4189C189.545 63.2595 189.095 63.493 188.739 63.9397C188.383 64.3868 188.257 64.8783 188.457 65.0373C188.657 65.1963 189.107 64.9633 189.463 64.5161Z" fill="#F4F6F9"/>
<path d="M183.331 156.51C173.205 153.026 156.464 155.449 156.464 155.449L155.947 150.712C155.947 150.712 174.484 147.99 181.942 143.662" fill="#22A74F"/>
<path d="M157.417 150.495C157.693 152.096 157.628 153.738 157.226 155.313H156.464L155.947 150.576L157.417 150.495Z" fill="#00C708"/>
<path d="M154.564 158.68C156.058 158.512 156.997 155.942 156.661 152.94C156.326 149.936 154.843 147.637 153.348 147.805C151.854 147.972 150.915 150.542 151.251 153.544C151.587 156.548 153.07 158.847 154.564 158.68Z" fill="#22A74F"/>
<path d="M153.262 157.326C153.503 157.24 153.543 156.735 153.352 156.196C153.161 155.658 152.81 155.291 152.57 155.376C152.329 155.461 152.289 155.968 152.48 156.506C152.671 157.044 153.021 157.411 153.262 157.326Z" fill="#F4F6F9"/>
<path d="M220.051 206.27C210.987 211.931 202.303 226.44 202.303 226.44L198.302 223.881C198.302 223.881 207.938 207.794 209.19 199.246" fill="#22A74F"/>
<path d="M199.037 222.574C200.441 223.366 201.658 224.453 202.603 225.759L202.222 226.385L198.22 223.826L199.037 222.574Z" fill="#00C708"/>
<path d="M203.614 230.088C204.426 228.823 203.024 226.474 200.482 224.841C197.939 223.208 195.219 222.909 194.407 224.174C193.594 225.439 194.997 227.788 197.54 229.421C200.082 231.054 202.802 231.352 203.614 230.088Z" fill="#22A74F"/>
<path d="M201.713 230.099C201.798 229.858 201.431 229.508 200.892 229.317C200.354 229.126 199.849 229.167 199.763 229.408C199.677 229.648 200.045 229.999 200.583 230.189C201.122 230.38 201.627 230.34 201.713 230.099Z" fill="#F4F6F9"/>
<path d="M272.369 211.632C270.436 220.043 273.757 233.245 273.757 233.245L270 234.062C270 234.062 266.353 219.417 262.188 213.837" fill="#22A74F"/>
<path d="M269.701 232.892C270.958 232.537 272.275 232.453 273.567 232.647L273.703 233.246L269.946 234.062L269.701 232.892Z" fill="#00C708"/>
<path d="M272.655 237.691C275.035 237.173 276.753 235.788 276.494 234.598C276.235 233.408 274.096 232.864 271.716 233.383C269.336 233.901 267.618 235.286 267.877 236.476C268.136 237.665 270.275 238.21 272.655 237.691Z" fill="#22A74F"/>
<path d="M274.888 236.385C275.309 236.184 275.576 235.868 275.486 235.678C275.396 235.488 274.981 235.497 274.56 235.697C274.14 235.897 273.872 236.214 273.962 236.404C274.053 236.594 274.467 236.585 274.888 236.385Z" fill="#F4F6F9"/>
<path d="M260.718 214.436C256.282 224.154 257.071 241.057 257.071 241.057H252.308C252.308 241.057 251.436 222.357 247.789 214.517" fill="#22A74F"/>
<path d="M252.198 239.642C253.817 239.511 255.445 239.743 256.962 240.323V241.058H252.198C252.198 241.058 252.253 240.295 252.198 239.642Z" fill="#00C708"/>
<path d="M254.732 246.074C257.753 246.031 260.185 244.777 260.164 243.274C260.143 241.771 257.676 240.587 254.655 240.63C251.634 240.673 249.201 241.926 249.223 243.429C249.244 244.932 251.71 246.116 254.732 246.074Z" fill="#22A74F"/>
<path d="M257.733 245.015C258.287 244.877 258.686 244.564 258.624 244.316C258.562 244.068 258.063 243.979 257.509 244.117C256.954 244.255 256.555 244.568 256.617 244.816C256.679 245.064 257.178 245.153 257.733 245.015Z" fill="#F4F6F9"/>
<path d="M181.534 128.282C174.675 123.192 161.309 120.96 161.309 120.96L162.071 117.231C162.071 117.231 176.852 119.708 183.603 118.157" fill="#22A74F"/>
<path d="M163.215 117.394C163.026 118.672 162.571 119.896 161.881 120.988H161.282L162.044 117.258L163.215 117.394Z" fill="#00C708"/>
<path d="M162.008 119.145C162.478 116.786 161.903 114.682 160.724 114.447C159.544 114.212 158.207 115.934 157.737 118.293C157.267 120.652 157.842 122.755 159.021 122.99C160.201 123.225 161.538 121.503 162.008 119.145Z" fill="#22A74F"/>
<path d="M158.491 121.595C158.702 121.588 158.859 121.205 158.844 120.739C158.829 120.273 158.645 119.901 158.435 119.908C158.225 119.915 158.067 120.299 158.083 120.764C158.098 121.23 158.281 121.602 158.491 121.595Z" fill="#F4F6F9"/>
<path d="M205.76 194.864C197.023 197.586 186.706 207.957 186.706 207.957L183.984 204.963C183.984 204.963 195.389 193.585 198.248 186.725" fill="#22A74F"/>
<path d="M184.828 204.038C185.852 204.988 186.644 206.161 187.142 207.467L186.679 207.903L183.957 204.908L184.828 204.038Z" fill="#00C708"/>
<path d="M187.011 211.251C187.956 210.368 187.289 208.122 185.522 206.233C183.756 204.345 181.558 203.53 180.615 204.413C179.67 205.297 180.337 207.543 182.103 209.431C183.87 211.32 186.067 212.135 187.011 211.251Z" fill="#22A74F"/>
<path d="M185.479 210.861C185.604 210.673 185.371 210.297 184.959 210.022C184.546 209.747 184.11 209.675 183.984 209.863C183.859 210.051 184.092 210.426 184.505 210.701C184.918 210.977 185.353 211.048 185.479 210.861Z" fill="#F4F6F9"/>
<path d="M127.925 75.6227C132.604 78.0378 134.943 81.8868 134.943 87.1698C134.943 90.3396 133.811 93.434 131.547 96.4529C129.132 99.6227 126.038 101.208 122.264 101.208C119.698 101.208 117.132 100.528 114.566 99.1698C107.17 95.6981 99.1698 93.9623 90.566 93.9623C80 93.9623 70.7925 96.2264 62.9434 100.755C55.0943 105.132 49.0566 111.396 44.8302 119.547C40.6038 127.547 38.4906 136.755 38.4906 147.17C38.4906 164.981 43.2453 178.491 52.7547 187.698C62.4151 196.906 75.0189 201.509 90.566 201.509C99.7736 201.509 107.774 199.774 114.566 196.302C117.283 195.094 119.698 194.491 121.811 194.491C125.736 194.491 129.057 196.151 131.774 199.472C134.038 202.34 135.17 205.434 135.17 208.755C135.17 211.17 134.566 213.359 133.358 215.321C132.151 217.283 130.415 218.792 128.151 219.849C116.377 225.736 103.849 228.679 90.566 228.679C75.7736 228.679 62.1887 225.585 49.8113 219.396C37.434 213.057 27.5472 203.774 20.1509 191.547C12.7547 179.321 9.05661 164.528 9.05661 147.17C9.05661 131.774 12.5283 117.962 19.4717 105.736C26.566 93.5095 36.3019 84 48.6792 77.2076C61.0566 70.2642 75.0189 66.7925 90.566 66.7925C104 66.7925 116.453 69.7359 127.925 75.6227Z" fill="#073BC8"/>
<path d="M491.17 67.4717C494.943 67.4717 498.189 68.7547 500.906 71.3207C503.774 73.8868 505.208 76.9811 505.208 80.6037C505.208 82.566 504.755 84.6037 503.849 86.7169L447.925 217.585C446.566 220.453 444.679 222.641 442.264 224.151C439.849 225.66 437.283 226.415 434.566 226.415C432 226.264 429.585 225.509 427.321 224.151C425.208 222.641 423.547 220.528 422.34 217.811L366.415 86.4905C365.66 84.9811 365.283 83.0943 365.283 80.8301C365.283 76.7547 366.793 73.5094 369.811 71.0943C372.83 68.5283 375.925 67.2452 379.094 67.2452C381.66 67.2452 384.076 68 386.34 69.5094C388.604 71.0188 390.34 73.2075 391.547 76.0754L437.057 183.17L478.717 76.0754C479.925 73.3584 481.66 71.2452 483.925 69.7358C486.189 68.2264 488.604 67.4717 491.17 67.4717ZM557.222 212.604C557.222 216.528 555.788 219.849 552.92 222.566C550.052 225.132 546.731 226.415 542.958 226.415C538.882 226.415 535.486 225.132 532.769 222.566C530.203 219.849 528.92 216.528 528.92 212.604V81.7358C528.92 77.8113 530.278 74.566 532.995 72C535.712 69.283 539.184 67.9245 543.41 67.9245C547.184 67.9245 550.429 69.283 553.146 72C555.863 74.566 557.222 77.8113 557.222 81.7358V212.604ZM659.198 67.9245C673.387 67.9245 685.538 71.4717 695.651 78.566C705.915 85.5094 713.689 95.0188 718.972 107.094C724.406 119.019 727.123 132.377 727.123 147.17C727.123 161.962 724.406 175.396 718.972 187.472C713.689 199.396 705.915 208.906 695.651 216C685.538 222.943 673.387 226.415 659.198 226.415H605.085C601.16 226.415 597.84 225.132 595.123 222.566C592.557 219.849 591.274 216.528 591.274 212.604V81.7358C591.274 77.8113 592.557 74.566 595.123 72C597.84 69.283 601.16 67.9245 605.085 67.9245H659.198ZM656.934 200.377C670.519 200.377 680.708 195.396 687.5 185.434C694.293 175.321 697.689 162.566 697.689 147.17C697.689 131.774 694.217 119.094 687.274 109.132C680.481 99.0188 670.368 93.9622 656.934 93.9622H619.576V200.377H656.934ZM781.429 93.9622V133.811H830.335C834.26 133.811 837.505 135.094 840.071 137.66C842.788 140.075 844.146 143.245 844.146 147.17C844.146 150.491 842.788 153.434 840.071 156C837.505 158.566 834.26 159.849 830.335 159.849H781.429V212.604C781.429 216.528 779.995 219.849 777.127 222.566C774.41 225.132 771.165 226.415 767.392 226.415C763.165 226.415 759.693 225.132 756.977 222.566C754.41 220 753.127 216.679 753.127 212.604V81.7358C753.127 77.8113 754.41 74.566 756.977 72C759.693 69.283 763.014 67.9245 766.939 67.9245H840.524C844.448 67.9245 847.694 69.2075 850.26 71.7735C852.977 74.1886 854.335 77.3584 854.335 81.283C854.335 84.6037 852.977 87.5471 850.26 90.1132C847.694 92.6792 844.448 93.9622 840.524 93.9622H781.429ZM991.061 165.962C991.061 178.038 988.344 188.906 982.91 198.566C977.477 208.075 970.005 215.472 960.495 220.755C951.137 226.038 940.797 228.679 929.477 228.679C918.005 228.679 907.59 226.038 898.231 220.755C888.873 215.472 881.476 208.075 876.043 198.566C870.609 188.906 867.892 178.038 867.892 165.962C867.892 153.887 870.609 143.094 876.043 133.585C881.476 123.924 888.873 116.453 898.231 111.17C907.59 105.736 918.005 103.019 929.477 103.019C940.797 103.019 951.137 105.736 960.495 111.17C970.005 116.453 977.477 123.924 982.91 133.585C988.344 143.094 991.061 153.887 991.061 165.962ZM963.892 165.962C963.892 158.566 962.307 152 959.137 146.264C956.118 140.377 951.967 135.849 946.684 132.679C941.552 129.509 935.816 127.924 929.477 127.924C923.137 127.924 917.326 129.509 912.043 132.679C906.91 135.849 902.76 140.377 899.59 146.264C896.571 152 895.061 158.566 895.061 165.962C895.061 173.358 896.571 179.924 899.59 185.66C902.76 191.396 906.91 195.849 912.043 199.019C917.326 202.189 923.137 203.774 929.477 203.774C935.816 203.774 941.552 202.189 946.684 199.019C951.967 195.849 956.118 191.396 959.137 185.66C962.307 179.924 963.892 173.358 963.892 165.962Z" fill="#073BC8"/>
</svg>
