<svg width="200" height="200" viewBox="0 0 200 200" fill="none" xmlns="http://www.w3.org/2000/svg">
<path d="M100.273 167.574C138.949 167.574 170.302 138.127 170.302 101.803C170.302 65.4781 138.949 36.031 100.273 36.031C61.5971 36.031 30.2437 65.4781 30.2437 101.803C30.2437 138.127 61.5971 167.574 100.273 167.574Z" fill="#02DF40"/>
<path d="M127.43 162.275C110.722 169.048 91.8633 169.449 74.8463 163.393C57.8293 157.337 43.9889 145.3 36.2551 129.829C28.5208 114.358 27.5001 96.6678 33.4088 80.5026C39.3175 64.3373 51.6916 50.9657 67.912 43.2181C57.8802 53.3056 51.2049 65.9258 48.7069 79.528C46.2088 93.1307 47.997 107.122 53.8516 119.783C59.7063 132.443 69.3725 143.221 81.6613 150.792C93.9505 158.363 108.327 162.396 123.024 162.396C124.492 162.396 125.961 162.348 127.43 162.275Z" fill="#03B253"/>
<path d="M119.803 67.4652C123.46 67.4652 126.425 64.6813 126.425 61.2466C126.425 57.8118 123.46 55.0275 119.803 55.0275C116.146 55.0275 113.181 57.8118 113.181 61.2466C113.181 64.6813 116.146 67.4652 119.803 67.4652Z" fill="#22A74F"/>
<path d="M59.8219 71.3857C63.479 71.3857 66.4436 68.6013 66.4436 65.1666C66.4436 61.7319 63.479 58.9475 59.8219 58.9475C56.1652 58.9475 53.2006 61.7319 53.2006 65.1666C53.2006 68.6013 56.1652 71.3857 59.8219 71.3857Z" fill="#F4F6F9"/>
<path d="M83.5258 65.9169C86.2721 65.9169 88.4987 63.8257 88.4987 61.2464C88.4987 58.6671 86.2721 56.5763 83.5258 56.5763C80.7796 56.5763 78.553 58.6671 78.553 61.2464C78.553 63.8257 80.7796 65.9169 83.5258 65.9169Z" fill="#F4F6F9"/>
<path d="M92.595 105.215C98.7282 105.215 103.7 100.546 103.7 94.7857C103.7 89.0257 98.7282 84.3561 92.595 84.3561C86.4622 84.3561 81.4902 89.0257 81.4902 94.7857C81.4902 100.546 86.4622 105.215 92.595 105.215Z" fill="#22A74F"/>
<path d="M55.3133 125.953C61.4461 125.953 66.4181 121.284 66.4181 115.524C66.4181 109.763 61.4461 105.094 55.3133 105.094C49.1801 105.094 44.2086 109.763 44.2086 115.524C44.2086 121.284 49.1801 125.953 55.3133 125.953Z" fill="#F4F6F9"/>
<path d="M106.792 142.336C112.924 142.336 117.896 137.666 117.896 131.906C117.896 126.146 112.924 121.476 106.792 121.476C100.659 121.476 95.6869 126.146 95.6869 131.906C95.6869 137.666 100.659 142.336 106.792 142.336Z" fill="#22A74F"/>
<path d="M142.167 131.906C145.824 131.906 148.789 129.122 148.789 125.687C148.789 122.253 145.824 119.468 142.167 119.468C138.51 119.468 135.546 122.253 135.546 125.687C135.546 129.122 138.51 131.906 142.167 131.906Z" fill="#00C708"/>
<path d="M73.091 150.128C75.8373 150.128 78.0634 148.037 78.0634 145.457C78.0634 142.878 75.8373 140.787 73.091 140.787C70.3447 140.787 68.1182 142.878 68.1182 145.457C68.1182 148.037 70.3447 150.128 73.091 150.128Z" fill="#00C708"/>
<path d="M57.2971 97.3264C60.0434 97.3264 62.2699 95.2356 62.2699 92.6563C62.2699 90.077 60.0434 87.9858 57.2971 87.9858C54.5508 87.9858 52.3242 90.077 52.3242 92.6563C52.3242 95.2356 54.5508 97.3264 57.2971 97.3264Z" fill="#00C708"/>
<path d="M135.546 94.3014C139.202 94.3014 142.167 91.5171 142.167 88.0823C142.167 84.648 139.202 81.8636 135.546 81.8636C131.889 81.8636 128.924 84.648 128.924 88.0823C128.924 91.5171 131.889 94.3014 135.546 94.3014Z" fill="#00C708"/>
<path d="M92.595 36.4183C98.1862 25.2868 97.5165 5.80713 97.5165 5.80713H103.365C103.365 5.80713 104.086 27.3679 108.518 36.4666" fill="#14C450"/>
<path d="M103.442 7.52526C101.457 7.63739 99.4695 7.34004 97.6193 6.6541V5.80713H103.468C103.468 5.80713 103.416 6.77507 103.442 7.52526Z" fill="#22A74F"/>
<path d="M100.531 6.29164C104.231 6.29164 107.23 4.88323 107.23 3.14586C107.23 1.40845 104.231 0 100.531 0C96.8312 0 93.8317 1.40845 93.8317 3.14586C93.8317 4.88323 96.8312 6.29164 100.531 6.29164Z" fill="#14C450"/>
<path d="M97.1326 2.16411C97.8251 2.01173 98.3291 1.65618 98.2577 1.3699C98.1863 1.08362 97.5666 0.975059 96.8741 1.12744C96.1812 1.27979 95.6776 1.63538 95.749 1.92166C95.8204 2.20793 96.4397 2.31646 97.1326 2.16411Z" fill="#F4F6F9"/>
<path d="M116.66 39.0322C123.771 32.3535 128.692 18.1005 128.692 18.1005L132.918 19.5526C132.918 19.5526 127.455 35.3056 128.099 42.9282" fill="#14C450"/>
<path d="M132.505 20.8106C131.042 20.3984 129.689 19.6972 128.537 18.7538L128.769 18.1248L132.995 19.5765L132.505 20.8106Z" fill="#22A74F"/>
<path d="M136.431 18.5176C136.914 17.2605 135.134 15.5066 132.456 14.6008C129.779 13.6949 127.217 13.9799 126.735 15.2372C126.253 16.4946 128.033 18.2484 130.71 19.1542C133.388 20.0599 135.949 19.7748 136.431 18.5176Z" fill="#14C450"/>
<path d="M130.368 15.0439C130.396 14.8182 129.983 14.5877 129.446 14.529C128.909 14.4704 128.451 14.6059 128.423 14.8315C128.395 15.0572 128.808 15.2877 129.345 15.3463C129.882 15.4049 130.34 15.2696 130.368 15.0439Z" fill="#F4F6F9"/>
<path d="M131.732 45.1789C139.127 40.9198 146.29 29.9337 146.29 29.9337L149.51 31.918C149.51 31.918 141.574 44.0174 140.493 50.6235" fill="#14C450"/>
<path d="M148.892 32.9098C147.754 32.3097 146.77 31.4837 146.006 30.4903L146.341 30.0063L149.561 31.9906L148.892 32.9098Z" fill="#22A74F"/>
<path d="M152.7 31.8019C153.372 30.8408 152.256 29.0402 150.209 27.7797C148.162 26.5192 145.96 26.2768 145.289 27.2379C144.617 28.199 145.733 30.0001 147.779 31.2606C149.826 32.5207 152.029 32.7635 152.7 31.8019Z" fill="#14C450"/>
<path d="M148.392 27.7395C148.465 27.5513 148.166 27.2758 147.725 27.1244C147.284 26.973 146.868 27.0032 146.794 27.1915C146.721 27.3798 147.019 27.6553 147.46 27.8062C147.901 27.9576 148.318 27.9278 148.392 27.7395Z" fill="#F4F6F9"/>
<path d="M72.241 43.6295C73.2456 35.6442 68.5049 23.5448 68.5049 23.5448L72.1633 22.3833C72.1633 22.3833 77.471 35.765 82.2635 40.6049" fill="#14C450"/>
<path d="M72.5241 23.3511C71.3061 23.8107 69.9966 24.017 68.6853 23.9562L68.5049 23.5449L72.1633 22.3833L72.5241 23.3511Z" fill="#22A74F"/>
<path d="M70.4422 23.1576C72.7612 22.422 74.3234 20.9431 73.9319 19.8541C73.5403 18.7651 71.3432 18.4787 69.0242 19.2142C66.7056 19.9497 65.143 21.4287 65.5345 22.5177C65.9261 23.6062 68.1232 23.8931 70.4422 23.1576Z" fill="#14C450"/>
<path d="M67.3714 21.2199C67.7705 20.9872 68.0027 20.6605 67.8902 20.4902C67.7772 20.32 67.3629 20.3707 66.9637 20.6035C66.565 20.8358 66.3329 21.1624 66.4454 21.3327C66.5579 21.5034 66.9727 21.4526 67.3714 21.2199Z" fill="#F4F6F9"/>
<path d="M166.747 88.3246C174.966 90.9383 188.544 89.0748 188.544 89.0748L188.982 92.6806C188.982 92.6806 173.935 94.7374 167.881 98.1252" fill="#14C450"/>
<path d="M187.771 92.8738C187.555 91.659 187.607 90.4148 187.926 89.2197H188.544L188.982 92.8256L187.771 92.8738Z" fill="#22A74F"/>
<path d="M191.105 94.8938C192.32 94.7642 193.082 92.8072 192.805 90.5231C192.528 88.2394 191.318 86.4929 190.103 86.6229C188.887 86.7529 188.125 88.7095 188.402 90.9936C188.679 93.2777 189.888 95.0238 191.105 94.8938Z" fill="#14C450"/>
<path d="M191.675 89.2038C191.876 89.1363 191.911 88.7451 191.753 88.3295C191.595 87.9144 191.304 87.6322 191.103 87.6997C190.902 87.7672 190.867 88.1588 191.025 88.574C191.183 88.9891 191.474 89.2713 191.675 89.2038Z" fill="#F4F6F9"/>
<path d="M168.267 101.949C175.687 106.159 189.395 107.055 189.395 107.055L189.008 110.684C189.008 110.684 173.832 109.668 167.185 111.749" fill="#14C450"/>
<path d="M187.797 110.66C187.85 109.422 188.184 108.209 188.776 107.103H189.395L189.008 110.733L187.797 110.66Z" fill="#22A74F"/>
<path d="M193.242 109.294C193.491 107.007 192.705 105.059 191.488 104.942C190.271 104.825 189.082 106.585 188.833 108.871C188.585 111.158 189.37 113.106 190.588 113.223C191.805 113.34 192.993 111.581 193.242 109.294Z" fill="#14C450"/>
<path d="M192.47 107.758C192.682 107.732 192.805 107.357 192.745 106.919C192.685 106.482 192.465 106.148 192.252 106.174C192.041 106.2 191.918 106.575 191.978 107.012C192.038 107.45 192.259 107.784 192.47 107.758Z" fill="#F4F6F9"/>
<path d="M162.161 128.276C167.082 134.979 179.166 141.101 179.166 141.101L177.208 144.223C177.208 144.223 163.836 137.447 156.853 136.77" fill="#14C450"/>
<path d="M176.151 143.715C176.746 142.614 177.58 141.641 178.599 140.86L179.14 141.15L177.182 144.272L176.151 143.715Z" fill="#22A74F"/>
<path d="M181.7 144.59C182.93 142.603 183.069 140.524 182.012 139.946C180.954 139.369 179.099 140.511 177.869 142.498C176.639 144.486 176.499 146.565 177.557 147.143C178.615 147.72 180.47 146.578 181.7 144.59Z" fill="#14C450"/>
<path d="M182.195 142.209C182.333 141.787 182.278 141.398 182.074 141.339C181.87 141.281 181.593 141.575 181.456 141.997C181.319 142.419 181.373 142.808 181.577 142.867C181.781 142.925 182.058 142.631 182.195 142.209Z" fill="#F4F6F9"/>
<path d="M161.955 73.1522C172.003 73.975 186.766 68.3127 186.766 68.3127L188.312 72.2813C188.312 72.2813 171.952 78.5004 166.154 83.8724" fill="#14C450"/>
<path d="M187.024 72.813C186.412 71.5018 186.104 70.0828 186.122 68.6512L186.792 68.4088L188.338 72.3778L187.024 72.813Z" fill="#22A74F"/>
<path d="M191.403 74.154C192.738 73.6911 193.02 71.2833 192.035 68.7757C191.049 66.2685 189.167 64.6113 187.832 65.0743C186.497 65.5372 186.215 67.945 187.201 70.4526C188.187 72.9598 190.068 74.617 191.403 74.154Z" fill="#14C450"/>
<path d="M190.321 67.5742C190.522 67.4493 190.444 67.0039 190.147 66.5804C189.848 66.1565 189.443 65.9145 189.241 66.0399C189.039 66.1653 189.117 66.6102 189.415 67.0337C189.714 67.4576 190.119 67.6996 190.321 67.5742Z" fill="#F4F6F9"/>
<path d="M167.443 115.959C174.682 122.517 189.909 126.873 189.909 126.873L188.493 130.866C188.493 130.866 171.59 126.026 163.475 126.776" fill="#14C450"/>
<path d="M187.024 130.479C187.431 129.097 188.141 127.811 189.111 126.704L189.781 126.921L188.364 130.914L187.024 130.479Z" fill="#22A74F"/>
<path d="M195.228 127.917C196.139 125.378 195.782 122.972 194.43 122.545C193.078 122.117 191.244 123.829 190.333 126.368C189.422 128.907 189.78 131.312 191.132 131.74C192.484 132.168 194.318 130.456 195.228 127.917Z" fill="#14C450"/>
<path d="M199.989 126.687C200.043 126.179 199.891 125.749 199.649 125.726C199.407 125.703 199.167 126.096 199.113 126.604C199.059 127.112 199.211 127.542 199.453 127.565C199.695 127.588 199.935 127.194 199.989 126.687Z" fill="#F4F6F9"/>
<path d="M140.827 154.023C141.677 163.461 150.102 176.141 150.102 176.141L146.212 178.27C146.212 178.27 136.885 164.187 130.289 159.71" fill="#14C450"/>
<path d="M145.465 177.157C146.741 176.37 148.182 175.85 149.69 175.633L150.051 176.189L146.161 178.319L145.465 177.157Z" fill="#22A74F"/>
<path d="M150.479 181.094C152.942 179.755 154.361 177.732 153.649 176.575C152.936 175.418 150.361 175.566 147.898 176.905C145.435 178.244 144.016 180.267 144.729 181.424C145.442 182.58 148.016 182.433 150.479 181.094Z" fill="#14C450"/>
<path d="M152.467 178.984C152.862 178.636 153.046 178.22 152.881 178.055C152.715 177.889 152.262 178.037 151.867 178.385C151.474 178.733 151.289 179.149 151.454 179.314C151.62 179.48 152.074 179.332 152.467 178.984Z" fill="#F4F6F9"/>
<path d="M147.294 53.0431C159.893 49.6067 174.966 36.225 174.966 36.225L178.831 40.3143C178.831 40.3143 162.109 55.1238 157.781 64.2225" fill="#14C450"/>
<path d="M177.517 41.5246C176.119 40.2062 175.038 38.622 174.348 36.8784L175.018 36.2976L178.882 40.3873L177.517 41.5246Z" fill="#22A74F"/>
<path d="M183.512 41.2045C184.897 40.0526 184.03 37.0099 181.577 34.4092C179.123 31.8085 176.012 30.634 174.627 31.7859C173.243 32.9382 174.11 35.9805 176.563 38.5816C179.016 41.1823 182.128 42.3568 183.512 41.2045Z" fill="#14C450"/>
<path d="M178.918 33.7188C179.099 33.4785 178.775 32.9712 178.194 32.5854C177.613 32.1992 176.996 32.0809 176.815 32.3212C176.634 32.561 176.958 33.0684 177.539 33.4546C178.12 33.8404 178.737 33.9587 178.918 33.7188Z" fill="#F4F6F9"/>
<path d="M158.863 137.883C164.428 149.015 180.841 160.944 180.841 160.944L177.13 165.155C177.13 165.155 158.966 151.942 148.788 149.329" fill="#14C450"/>
<path d="M175.661 164.138C176.84 162.636 178.34 161.382 180.067 160.46L180.789 161.017L177.079 165.227L175.661 164.138Z" fill="#22A74F"/>
<path d="M183.705 166.723C186.06 164.044 186.813 160.975 185.387 159.868C183.96 158.763 180.894 160.038 178.539 162.718C176.183 165.398 175.431 168.466 176.857 169.573C178.284 170.678 181.35 169.403 183.705 166.723Z" fill="#14C450"/>
<path d="M185.114 163.47C185.43 162.871 185.459 162.28 185.179 162.149C184.898 162.019 184.415 162.398 184.099 162.997C183.783 163.595 183.754 164.187 184.034 164.318C184.315 164.448 184.798 164.069 185.114 163.47Z" fill="#F4F6F9"/>
<path d="M88.2923 166.631C79.6097 175.85 74.5082 194.725 74.5082 194.725L68.8911 193.201C68.8911 193.201 74.5855 172.293 73.0911 162.444" fill="#22A74F"/>
<path d="M69.3295 191.531C71.2699 191.973 73.088 192.799 74.6627 193.951L74.431 194.774L68.8138 193.25C68.8138 193.25 69.1233 192.282 69.3295 191.531Z" fill="#00C708"/>
<path d="M77.2417 198.257C77.756 196.588 75.2919 194.452 71.7379 193.486C68.184 192.52 64.8863 193.09 64.372 194.759C63.8576 196.428 66.3217 198.564 69.8757 199.53C73.4296 200.496 76.7273 199.926 77.2417 198.257Z" fill="#22A74F"/>
<path d="M75.0422 198.895C75.0582 198.602 74.4952 198.336 73.7849 198.301C73.0741 198.267 72.4852 198.477 72.4692 198.771C72.4526 199.064 73.0156 199.33 73.7264 199.365C74.4368 199.399 75.0257 199.189 75.0422 198.895Z" fill="#F4F6F9"/>
<path d="M39.6737 134.858C26.5593 134.52 7.87965 142.965 7.87965 142.965L5.50931 137.931C5.50931 137.931 26.1213 128.615 33.3355 121.21" fill="#22A74F"/>
<path d="M7.15815 137.133C8.0703 138.792 8.58911 140.616 8.6784 142.481L7.85376 142.844L5.48343 137.811L7.15815 137.133Z" fill="#00C708"/>
<path d="M6.79159 147.103C8.48373 146.402 8.64492 143.256 7.15145 140.077C5.65799 136.898 3.07511 134.889 1.38252 135.591C-0.30963 136.292 -0.470811 139.438 1.02265 142.617C2.51612 145.796 5.09899 147.804 6.79159 147.103Z" fill="#22A74F"/>
<path d="M4.78556 146.081C5.03603 145.904 4.89181 145.328 4.46364 144.794C4.03547 144.26 3.48585 143.971 3.23583 144.148C2.9858 144.324 3.13002 144.901 3.55819 145.434C3.98591 145.968 4.53553 146.258 4.78556 146.081Z" fill="#F4F6F9"/>
<path d="M37.5869 72.668C30.6045 62.2384 12.7753 52.2927 12.7753 52.2927L15.9185 47.6465C15.9185 47.6465 35.6545 58.7055 46.1668 60.1572" fill="#22A74F"/>
<path d="M17.4129 48.5179C16.4378 50.1445 15.1024 51.5555 13.4964 52.6559L12.7235 52.2202L15.8667 47.574C15.8667 47.574 16.6914 48.1547 17.4129 48.5179Z" fill="#00C708"/>
<path d="M13.9469 52.552C15.9449 49.6334 16.3047 46.5065 14.7505 45.5684C13.1968 44.6304 10.3175 46.2356 8.31991 49.1545C6.32193 52.0735 5.96207 55.2 7.51581 56.1385C9.06955 57.0765 11.9489 55.4709 13.9469 52.552Z" fill="#22A74F"/>
<path d="M9.15166 50.5984C9.38785 49.9677 9.34008 49.3777 9.04451 49.28C8.74939 49.1823 8.31854 49.6142 8.08236 50.2445C7.84573 50.8747 7.89349 51.4652 8.18906 51.5625C8.48418 51.6602 8.91503 51.2287 9.15166 50.5984Z" fill="#F4F6F9"/>
<path d="M53.9475 55.003C51.6544 45.7349 41.3484 34.2406 41.3484 34.2406L44.8783 31.627C44.8783 31.627 56.292 44.3797 63.5579 47.9129" fill="#22A74F"/>
<path d="M45.8056 32.571C44.6578 33.53 43.3049 34.2479 41.8378 34.6764L41.3998 34.1439L44.9297 31.5306L45.8056 32.571Z" fill="#00C708"/>
<path d="M43.3938 33.1687C45.6382 31.5036 46.7428 29.3038 45.861 28.255C44.9792 27.2063 42.4446 27.7057 40.2001 29.3704C37.9552 31.0356 36.8507 33.2354 37.7325 34.2842C38.6147 35.3329 41.1493 34.8335 43.3938 33.1687Z" fill="#22A74F"/>
<path d="M39.2429 32.1936C39.5799 31.7965 39.6996 31.3596 39.5103 31.2183C39.321 31.0765 38.8946 31.2841 38.5575 31.6812C38.2209 32.0787 38.1012 32.5157 38.2905 32.657C38.4799 32.7983 38.9062 32.5912 39.2429 32.1936Z" fill="#F4F6F9"/>
<path d="M33.4387 113.975C23.8542 110.878 8.00876 113.031 8.00876 113.031L7.51898 108.82C7.51898 108.82 25.065 106.401 32.1247 102.553" fill="#22A74F"/>
<path d="M8.91017 108.627C9.17225 110.051 9.11064 111.511 8.73025 112.91H8.00875L7.51898 108.7L8.91017 108.627Z" fill="#00C708"/>
<path d="M6.21037 115.903C7.62435 115.755 8.51327 113.47 8.19539 110.801C7.8775 108.131 6.47378 106.087 5.05936 106.236C3.64538 106.384 2.75645 108.669 3.07434 111.338C3.39223 114.008 4.79639 116.052 6.21037 115.903Z" fill="#22A74F"/>
<path d="M4.97753 114.7C5.20568 114.624 5.24363 114.174 5.06281 113.695C4.88199 113.217 4.55025 112.891 4.32255 112.967C4.0944 113.042 4.05645 113.492 4.23727 113.971C4.41809 114.449 4.74983 114.776 4.97753 114.7Z" fill="#F4F6F9"/>
<path d="M68.196 158.21C59.6161 163.243 51.3969 176.141 51.3969 176.141L47.6094 173.866C47.6094 173.866 56.7305 159.565 57.9154 151.966" fill="#22A74F"/>
<path d="M48.305 172.705C49.6342 173.409 50.7856 174.375 51.6804 175.536L51.3196 176.092L47.5322 173.818L48.305 172.705Z" fill="#00C708"/>
<path d="M52.6376 179.384C53.4064 178.259 52.0791 176.171 49.6726 174.719C47.2661 173.267 44.6917 173.002 43.9228 174.127C43.1536 175.251 44.4814 177.34 46.8879 178.791C49.2944 180.243 51.8688 180.508 52.6376 179.384Z" fill="#22A74F"/>
<path d="M50.8379 179.394C50.9187 179.18 50.5713 178.869 50.0615 178.699C49.552 178.529 49.0734 178.565 48.9926 178.779C48.9114 178.993 49.2592 179.305 49.7686 179.474C50.2785 179.644 50.7571 179.608 50.8379 179.394Z" fill="#F4F6F9"/>
<path d="M117.716 162.977C115.887 170.454 119.03 182.19 119.03 182.19L115.474 182.917C115.474 182.917 112.022 169.898 108.08 164.937" fill="#22A74F"/>
<path d="M115.191 181.876C116.381 181.561 117.628 181.487 118.85 181.659L118.979 182.191L115.423 182.917L115.191 181.876Z" fill="#00C708"/>
<path d="M117.987 186.143C120.239 185.682 121.866 184.451 121.621 183.394C121.375 182.336 119.351 181.852 117.098 182.313C114.846 182.774 113.219 184.005 113.464 185.063C113.709 186.12 115.734 186.604 117.987 186.143Z" fill="#22A74F"/>
<path d="M120.101 184.982C120.499 184.804 120.752 184.522 120.666 184.354C120.581 184.185 120.189 184.192 119.79 184.371C119.392 184.548 119.139 184.83 119.224 184.999C119.31 185.168 119.702 185.16 120.101 184.982Z" fill="#F4F6F9"/>
<path d="M106.689 165.469C102.489 174.108 103.236 189.136 103.236 189.136H98.7274C98.7274 189.136 97.9027 172.511 94.4501 165.542" fill="#22A74F"/>
<path d="M98.6241 187.878C100.156 187.761 101.697 187.967 103.133 188.483V189.136H98.6241C98.6241 189.136 98.6755 188.458 98.6241 187.878Z" fill="#00C708"/>
<path d="M101.022 193.595C103.882 193.557 106.184 192.443 106.164 191.106C106.144 189.77 103.809 188.718 100.949 188.756C98.0893 188.794 95.7873 189.908 95.8074 191.244C95.8275 192.58 98.1621 193.633 101.022 193.595Z" fill="#22A74F"/>
<path d="M103.862 192.654C104.387 192.531 104.765 192.253 104.706 192.033C104.648 191.812 104.175 191.733 103.65 191.856C103.126 191.979 102.748 192.257 102.806 192.477C102.865 192.698 103.338 192.777 103.862 192.654Z" fill="#F4F6F9"/>
<path d="M31.7381 88.8808C25.2455 84.3558 12.5945 82.3715 12.5945 82.3715L13.3161 79.0563C13.3161 79.0563 27.3064 81.2586 33.6964 79.879" fill="#22A74F"/>
<path d="M14.3983 79.2013C14.2197 80.3373 13.7893 81.4254 13.1361 82.3958H12.569L13.2905 79.0806L14.3983 79.2013Z" fill="#00C708"/>
<path d="M13.2561 80.7574C13.7013 78.6603 13.157 76.7905 12.0404 76.5817C10.9242 76.3729 9.65845 77.9034 9.21331 80.0005C8.76862 82.0976 9.31288 83.967 10.4291 84.1762C11.5457 84.385 12.8114 82.8545 13.2561 80.7574Z" fill="#22A74F"/>
<path d="M9.92765 82.9358C10.1268 82.9295 10.2759 82.589 10.2616 82.1747C10.2469 81.7608 10.0732 81.43 9.87407 81.4362C9.67539 81.4425 9.52582 81.7835 9.54055 82.1973C9.55529 82.6116 9.72852 82.9421 9.92765 82.9358Z" fill="#F4F6F9"/>
<path d="M54.6691 148.07C46.3985 150.49 36.6336 159.71 36.6336 159.71L34.057 157.048C34.057 157.048 44.8524 146.933 47.558 140.835" fill="#22A74F"/>
<path d="M34.8558 156.226C35.8255 157.07 36.5747 158.114 37.0458 159.275L36.6078 159.662L34.0312 157L34.8558 156.226Z" fill="#00C708"/>
<path d="M36.9225 162.639C37.8163 161.854 37.185 159.856 35.513 158.178C33.8414 156.499 31.7612 155.775 30.8678 156.56C29.974 157.345 30.6049 159.342 32.2769 161.021C33.949 162.699 36.0287 163.424 36.9225 162.639Z" fill="#22A74F"/>
<path d="M35.472 162.291C35.5903 162.124 35.3697 161.791 34.9795 161.546C34.5888 161.301 34.1763 161.237 34.0575 161.404C33.9392 161.571 34.1598 161.905 34.55 162.15C34.9407 162.394 35.3532 162.458 35.472 162.291Z" fill="#F4F6F9"/>
</svg>
